<svg width="556" height="481" viewBox="0 0 556 481" fill="none" xmlns="http://www.w3.org/2000/svg">
<path d="M434.375 80.1667C475.957 80.1667 509.667 109.329 509.667 145.302V335.79C509.667 371.763 475.957 400.925 434.375 400.925H121.625C80.0426 400.925 46.3333 371.763 46.3333 335.79V145.302C46.3333 110.569 77.7579 82.1859 117.353 80.2698L121.625 80.1667H434.375ZM434.375 110.229H121.625L118.3 110.345C97.4647 111.809 81.0833 126.9 81.0833 145.302V335.79C81.0833 355.16 99.2345 370.863 121.625 370.863H434.375C456.766 370.863 474.917 355.16 474.917 335.79V145.302C474.917 125.932 456.766 110.229 434.375 110.229ZM127.417 240.5C127.417 177.457 190.273 144.795 246.068 172.329C254.403 176.442 257.305 185.623 252.55 192.833C247.796 200.044 237.184 202.555 228.849 198.442C196.47 182.463 162.167 200.288 162.167 240.5C162.167 280.675 196.549 298.545 228.868 282.642C237.209 278.537 247.817 281.06 252.561 288.276C257.306 295.492 254.39 304.669 246.049 308.773C190.323 336.193 127.417 303.498 127.417 240.5ZM301.167 240.5C301.167 177.457 364.023 144.795 419.818 172.329C428.153 176.442 431.055 185.623 426.3 192.833C421.546 200.044 410.934 202.555 402.599 198.442C370.22 182.463 335.917 200.288 335.917 240.5C335.917 280.675 370.299 298.545 402.618 282.642C410.959 278.537 421.567 281.06 426.311 288.276C431.056 295.492 428.14 304.669 419.799 308.773C364.073 336.193 301.167 303.498 301.167 240.5Z" fill="#D9D9DD"/>
</svg>
