<svg width="100" height="100" viewBox="0 0 61 61" fill="none" xmlns="http://www.w3.org/2000/svg">
<g clip-path="url(#clip0_7_6)">
<path fill-rule="evenodd" clip-rule="evenodd" d="M0.110947 12.7979C0.110947 10.5601 0.999895 8.41401 2.58223 6.83167C4.16457 5.24933 6.31068 4.36038 8.54845 4.36038H51.6734C53.9112 4.36038 56.0573 5.24933 57.6397 6.83167C59.222 8.41401 60.1109 10.5601 60.1109 12.7979V46.5479C60.1109 48.7856 59.222 50.9318 57.6397 52.5141C56.0573 54.0964 53.9112 54.9854 51.6734 54.9854H8.54845C6.31068 54.9854 4.16457 54.0964 2.58223 52.5141C0.999895 50.9318 0.110947 48.7856 0.110947 46.5479L0.110947 12.7979ZM8.54845 9.98538C7.80253 9.98538 7.08715 10.2817 6.55971 10.8091C6.03226 11.3366 5.73595 12.052 5.73595 12.7979V46.5479C5.73595 48.1004 6.99595 49.3604 8.54845 49.3604H51.6734C52.4194 49.3604 53.1347 49.0641 53.6622 48.5366C54.1896 48.0092 54.4859 47.2938 54.4859 46.5479V12.7979C54.4859 12.052 54.1896 11.3366 53.6622 10.8091C53.1347 10.2817 52.4194 9.98538 51.6734 9.98538H8.54845ZM21.6734 24.9854C20.9129 24.9852 20.1638 25.17 19.4906 25.524C18.8175 25.8779 18.2406 26.3903 17.8097 27.017C17.3788 27.6437 17.1068 28.3658 17.0173 29.121C16.9277 29.8762 17.0233 30.6419 17.2957 31.352C17.5682 32.062 18.0092 32.6951 18.581 33.1967C19.1527 33.6982 19.8378 34.0531 20.5773 34.2307C21.3168 34.4084 22.0884 34.4034 22.8255 34.2163C23.5627 34.0291 24.2432 33.6655 24.8084 33.1566C25.3624 32.6569 26.0922 32.3976 26.8373 32.436C27.5824 32.4743 28.2818 32.807 28.7816 33.361C29.2813 33.915 29.5406 34.6448 29.5022 35.3899C29.4639 36.135 29.1312 36.8344 28.5772 37.3341C27.0959 38.6689 25.2593 39.5455 23.29 39.858C21.3207 40.1704 19.303 39.9053 17.4813 39.0946C15.6596 38.2839 14.1119 36.9624 13.0258 35.2902C11.9397 33.618 11.3616 31.6668 11.3616 29.6729C11.3616 27.6789 11.9397 25.7277 13.0258 24.0555C14.1119 22.3833 15.6596 21.0619 17.4813 20.2512C19.303 19.4405 21.3207 19.1753 23.29 19.4878C25.2593 19.8002 27.0959 20.6769 28.5772 22.0116C29.1312 22.5114 29.4639 23.2108 29.5022 23.9559C29.5406 24.701 29.2813 25.4308 28.7816 25.9848C28.2818 26.5387 27.5824 26.8715 26.8373 26.9098C26.0922 26.9481 25.3624 26.6889 24.8084 26.1891C23.9493 25.4123 22.8317 24.9832 21.6734 24.9854ZM37.6109 29.6729C37.6112 28.7669 37.8739 27.8805 38.3674 27.1207C38.8608 26.361 39.5639 25.7605 40.3914 25.392C41.219 25.0234 42.1357 24.9026 43.0305 25.044C43.9253 25.1855 44.7599 25.5832 45.4334 26.1891C45.7077 26.4366 46.0281 26.6276 46.3762 26.7513C46.7243 26.8749 47.0934 26.9288 47.4623 26.9098C47.8313 26.8908 48.1929 26.7994 48.5265 26.6406C48.86 26.4819 49.1591 26.2591 49.4066 25.9848C49.654 25.7105 49.845 25.3901 49.9687 25.042C50.0923 24.6939 50.1462 24.3248 50.1272 23.9559C50.1083 23.5869 50.0168 23.2253 49.8581 22.8917C49.6994 22.5582 49.4765 22.2591 49.2022 22.0116C47.7209 20.6769 45.8843 19.8002 43.915 19.4878C41.9457 19.1753 39.928 19.4405 38.1063 20.2512C36.2846 21.0619 34.7369 22.3833 33.6508 24.0555C32.5647 25.7277 31.9866 27.6789 31.9866 29.6729C31.9866 31.6668 32.5647 33.618 33.6508 35.2902C34.7369 36.9624 36.2846 38.2839 38.1063 39.0946C39.928 39.9053 41.9457 40.1704 43.915 39.858C45.8843 39.5455 47.7209 38.6689 49.2022 37.3341C49.7562 36.8344 50.0889 36.135 50.1272 35.3899C50.1656 34.6448 49.9063 33.915 49.4066 33.361C48.9068 32.807 48.2074 32.4743 47.4623 32.436C46.7172 32.3976 45.9874 32.6569 45.4334 33.1566C44.7599 33.7625 43.9253 34.1603 43.0305 34.3017C42.1357 34.4432 41.219 34.3224 40.3914 33.9538C39.5639 33.5852 38.8608 32.9848 38.3674 32.225C37.8739 31.4653 37.6112 30.5788 37.6109 29.6729Z" fill="white"/>
</g>
<defs>
<clipPath id="clip0_7_6">
<rect width="60" height="60" fill="white" transform="translate(0.110947 0.610382)"/>
</clipPath>
</defs>
</svg>
